<mxfile host="app.diagrams.net" modified="2020-09-30T08:19:32.030Z" agent="5.0 (Macintosh; Intel Mac OS X 10_14_5) AppleWebKit/537.36 (KHTML, like Gecko) Chrome/85.0.4183.121 Safari/537.36" etag="lTVFm1F3x6hOZK_7QF1w" version="13.7.6" type="github">
  <diagram name="Page-1" id="e3a06f82-3646-2815-327d-82caf3d4e204">
    <mxGraphModel dx="1188" dy="-551" grid="1" gridSize="10" guides="1" tooltips="1" connect="1" arrows="1" fold="1" page="1" pageScale="1.5" pageWidth="1169" pageHeight="826" background="none" math="0" shadow="0">
      <root>
        <mxCell id="0" style=";html=1;" />
        <mxCell id="1" style=";html=1;" parent="0" />
        <mxCell id="K5YFkA_Nb-A_5ZJ6huFh-6" value="web前端" style="rounded=1;whiteSpace=wrap;html=1;fillColor=#ffecf1;strokeColor=#ff8987;" parent="1" vertex="1">
          <mxGeometry x="637.5" y="1411.25" width="100" height="60" as="geometry" />
        </mxCell>
        <mxCell id="K5YFkA_Nb-A_5ZJ6huFh-7" value="Tomcat" style="shape=folder;fontStyle=1;spacingTop=10;tabWidth=40;tabHeight=14;tabPosition=left;html=1;align=left;verticalAlign=top;" parent="1" vertex="1">
          <mxGeometry x="550" y="1480" width="440" height="361.25" as="geometry" />
        </mxCell>
        <mxCell id="K5YFkA_Nb-A_5ZJ6huFh-8" value="Spring" style="shape=folder;fontStyle=1;spacingTop=10;tabWidth=40;tabHeight=14;tabPosition=left;html=1;align=left;verticalAlign=top;" parent="1" vertex="1">
          <mxGeometry x="570" y="1520" width="390" height="301.25" as="geometry" />
        </mxCell>
        <mxCell id="K5YFkA_Nb-A_5ZJ6huFh-9" style="edgeStyle=none;rounded=0;orthogonalLoop=1;jettySize=auto;html=1;exitX=0.493;exitY=0.438;exitDx=0;exitDy=0;exitPerimeter=0;entryX=0.5;entryY=1;entryDx=0;entryDy=0;entryPerimeter=0;startArrow=classic;startFill=1;endArrow=classic;endFill=1;strokeWidth=2;" parent="1" source="K5YFkA_Nb-A_5ZJ6huFh-12" target="K5YFkA_Nb-A_5ZJ6huFh-10" edge="1">
          <mxGeometry relative="1" as="geometry" />
        </mxCell>
        <mxCell id="K5YFkA_Nb-A_5ZJ6huFh-10" value="Inteceptor&lt;br&gt;拦截器，登录、权限控制" style="shape=folder;fontStyle=1;spacingTop=10;tabWidth=40;tabHeight=14;tabPosition=left;html=1;align=center;horizontal=1;verticalAlign=top;" parent="1" vertex="1">
          <mxGeometry x="592.5" y="1561.25" width="190" height="50" as="geometry" />
        </mxCell>
        <mxCell id="K5YFkA_Nb-A_5ZJ6huFh-11" style="edgeStyle=none;rounded=0;orthogonalLoop=1;jettySize=auto;html=1;exitX=0.5;exitY=1;exitDx=0;exitDy=0;exitPerimeter=0;entryX=0.506;entryY=0.342;entryDx=0;entryDy=0;entryPerimeter=0;startArrow=classic;startFill=1;endArrow=classic;endFill=1;strokeWidth=2;" parent="1" source="K5YFkA_Nb-A_5ZJ6huFh-12" target="K5YFkA_Nb-A_5ZJ6huFh-18" edge="1">
          <mxGeometry relative="1" as="geometry" />
        </mxCell>
        <mxCell id="K5YFkA_Nb-A_5ZJ6huFh-12" value="Controller" style="shape=folder;fontStyle=1;spacingTop=10;tabWidth=40;tabHeight=14;tabPosition=left;html=1;align=center;horizontal=1;verticalAlign=middle;" parent="1" vertex="1">
          <mxGeometry x="592.5" y="1631.25" width="190" height="35" as="geometry" />
        </mxCell>
        <mxCell id="K5YFkA_Nb-A_5ZJ6huFh-13" style="edgeStyle=none;rounded=0;orthogonalLoop=1;jettySize=auto;html=1;exitX=0.5;exitY=1;exitDx=0;exitDy=0;exitPerimeter=0;entryX=0.506;entryY=0.383;entryDx=0;entryDy=0;entryPerimeter=0;startArrow=classic;startFill=1;endArrow=classic;endFill=1;strokeWidth=2;" parent="1" source="K5YFkA_Nb-A_5ZJ6huFh-18" target="K5YFkA_Nb-A_5ZJ6huFh-20" edge="1">
          <mxGeometry relative="1" as="geometry" />
        </mxCell>
        <mxCell id="K5YFkA_Nb-A_5ZJ6huFh-14" style="edgeStyle=orthogonalEdgeStyle;rounded=0;orthogonalLoop=1;jettySize=auto;html=1;exitX=0;exitY=0;exitDx=190;exitDy=27;exitPerimeter=0;entryX=0;entryY=0;entryDx=0;entryDy=21.875;entryPerimeter=0;startArrow=classic;startFill=1;endArrow=classic;endFill=1;strokeWidth=2;" parent="1" source="K5YFkA_Nb-A_5ZJ6huFh-18" target="K5YFkA_Nb-A_5ZJ6huFh-28" edge="1">
          <mxGeometry relative="1" as="geometry">
            <Array as="points">
              <mxPoint x="1020" y="1718" />
              <mxPoint x="1020" y="1663" />
            </Array>
          </mxGeometry>
        </mxCell>
        <mxCell id="K5YFkA_Nb-A_5ZJ6huFh-15" style="edgeStyle=orthogonalEdgeStyle;rounded=0;orthogonalLoop=1;jettySize=auto;html=1;exitX=0;exitY=0;exitDx=190;exitDy=27;exitPerimeter=0;entryX=0;entryY=0;entryDx=0;entryDy=23.125;entryPerimeter=0;startArrow=classic;startFill=1;endArrow=classic;endFill=1;strokeWidth=2;" parent="1" source="K5YFkA_Nb-A_5ZJ6huFh-18" target="K5YFkA_Nb-A_5ZJ6huFh-30" edge="1">
          <mxGeometry relative="1" as="geometry">
            <Array as="points">
              <mxPoint x="1020" y="1718" />
              <mxPoint x="1020" y="1764" />
            </Array>
          </mxGeometry>
        </mxCell>
        <mxCell id="K5YFkA_Nb-A_5ZJ6huFh-16" style="rounded=0;orthogonalLoop=1;jettySize=auto;html=1;exitX=0;exitY=0;exitDx=190;exitDy=27;exitPerimeter=0;entryX=0;entryY=0;entryDx=0;entryDy=23.125;entryPerimeter=0;startArrow=classic;startFill=1;endArrow=classic;endFill=1;strokeWidth=2;" parent="1" source="K5YFkA_Nb-A_5ZJ6huFh-18" target="K5YFkA_Nb-A_5ZJ6huFh-29" edge="1">
          <mxGeometry relative="1" as="geometry" />
        </mxCell>
        <mxCell id="K5YFkA_Nb-A_5ZJ6huFh-17" value="配置变更通知&lt;br&gt;broadcast" style="edgeLabel;html=1;align=center;verticalAlign=middle;resizable=0;points=[];" parent="K5YFkA_Nb-A_5ZJ6huFh-16" vertex="1" connectable="0">
          <mxGeometry x="-0.2429" relative="1" as="geometry">
            <mxPoint as="offset" />
          </mxGeometry>
        </mxCell>
        <mxCell id="K5YFkA_Nb-A_5ZJ6huFh-18" value="Service" style="shape=folder;fontStyle=1;spacingTop=10;tabWidth=40;tabHeight=14;tabPosition=left;html=1;align=center;horizontal=1;verticalAlign=middle;" parent="1" vertex="1">
          <mxGeometry x="682.5" y="1691.25" width="190" height="40" as="geometry" />
        </mxCell>
        <mxCell id="K5YFkA_Nb-A_5ZJ6huFh-19" style="edgeStyle=none;rounded=0;orthogonalLoop=1;jettySize=auto;html=1;exitX=0.5;exitY=1;exitDx=0;exitDy=0;exitPerimeter=0;entryX=0.5;entryY=0;entryDx=0;entryDy=0;entryPerimeter=0;startArrow=classic;startFill=1;endArrow=classic;endFill=1;strokeWidth=2;" parent="1" source="K5YFkA_Nb-A_5ZJ6huFh-20" target="K5YFkA_Nb-A_5ZJ6huFh-26" edge="1">
          <mxGeometry relative="1" as="geometry" />
        </mxCell>
        <mxCell id="K5YFkA_Nb-A_5ZJ6huFh-20" value="Data Driver" style="shape=folder;fontStyle=1;spacingTop=10;tabWidth=40;tabHeight=14;tabPosition=left;html=1;align=center;horizontal=1;verticalAlign=middle;" parent="1" vertex="1">
          <mxGeometry x="682.5" y="1751.25" width="190" height="40" as="geometry" />
        </mxCell>
        <mxCell id="K5YFkA_Nb-A_5ZJ6huFh-21" style="rounded=0;orthogonalLoop=1;jettySize=auto;html=1;exitX=0.5;exitY=1;exitDx=0;exitDy=0;entryX=0.489;entryY=0.273;entryDx=0;entryDy=0;entryPerimeter=0;strokeWidth=2;startArrow=classic;startFill=1;endArrow=classic;endFill=1;" parent="1" source="K5YFkA_Nb-A_5ZJ6huFh-6" target="K5YFkA_Nb-A_5ZJ6huFh-10" edge="1">
          <mxGeometry relative="1" as="geometry" />
        </mxCell>
        <mxCell id="K5YFkA_Nb-A_5ZJ6huFh-22" style="edgeStyle=none;rounded=0;orthogonalLoop=1;jettySize=auto;html=1;exitX=0.5;exitY=1;exitDx=0;exitDy=0;exitPerimeter=0;entryX=0.502;entryY=0.363;entryDx=0;entryDy=0;entryPerimeter=0;startArrow=classic;startFill=1;endArrow=classic;endFill=1;strokeWidth=2;" parent="1" source="K5YFkA_Nb-A_5ZJ6huFh-25" target="K5YFkA_Nb-A_5ZJ6huFh-18" edge="1">
          <mxGeometry relative="1" as="geometry" />
        </mxCell>
        <mxCell id="K5YFkA_Nb-A_5ZJ6huFh-23" style="edgeStyle=none;rounded=0;orthogonalLoop=1;jettySize=auto;html=1;exitX=0;exitY=0;exitDx=85;exitDy=14;exitPerimeter=0;entryX=0.5;entryY=1;entryDx=0;entryDy=0;entryPerimeter=0;startArrow=classic;startFill=1;endArrow=classic;endFill=1;strokeWidth=2;" parent="1" source="K5YFkA_Nb-A_5ZJ6huFh-25" target="K5YFkA_Nb-A_5ZJ6huFh-27" edge="1">
          <mxGeometry relative="1" as="geometry" />
        </mxCell>
        <mxCell id="K5YFkA_Nb-A_5ZJ6huFh-24" value="其他服务调用" style="edgeLabel;html=1;align=center;verticalAlign=middle;resizable=0;points=[];" parent="K5YFkA_Nb-A_5ZJ6huFh-23" vertex="1" connectable="0">
          <mxGeometry x="0.0378" y="1" relative="1" as="geometry">
            <mxPoint as="offset" />
          </mxGeometry>
        </mxCell>
        <mxCell id="K5YFkA_Nb-A_5ZJ6huFh-25" value="Dubbo Api" style="shape=folder;fontStyle=1;spacingTop=10;tabWidth=40;tabHeight=14;tabPosition=left;html=1;align=center;horizontal=1;verticalAlign=middle;" parent="1" vertex="1">
          <mxGeometry x="802.5" y="1631.25" width="130" height="35" as="geometry" />
        </mxCell>
        <mxCell id="K5YFkA_Nb-A_5ZJ6huFh-26" value="MySQL" style="shape=cylinder3;whiteSpace=wrap;html=1;boundedLbl=1;backgroundOutline=1;size=5.333333333333712;align=center;" parent="1" vertex="1">
          <mxGeometry x="747.5" y="1871.25" width="60" height="30" as="geometry" />
        </mxCell>
        <mxCell id="K5YFkA_Nb-A_5ZJ6huFh-27" value="Other Service" style="shape=folder;fontStyle=1;spacingTop=10;tabWidth=40;tabHeight=14;tabPosition=left;html=1;align=center;horizontal=1;verticalAlign=middle;" parent="1" vertex="1">
          <mxGeometry x="832.5" y="1410" width="110" height="62.5" as="geometry" />
        </mxCell>
        <mxCell id="K5YFkA_Nb-A_5ZJ6huFh-28" value="ypp-gd-service" style="shape=folder;fontStyle=1;spacingTop=10;tabWidth=40;tabHeight=10;tabPosition=left;html=1;align=center;horizontal=1;verticalAlign=middle;" parent="1" vertex="1">
          <mxGeometry x="1062.5" y="1641.25" width="150" height="33.75" as="geometry" />
        </mxCell>
        <mxCell id="K5YFkA_Nb-A_5ZJ6huFh-29" value="spark-profile-job" style="shape=folder;fontStyle=1;spacingTop=10;tabWidth=40;tabHeight=10;tabPosition=left;html=1;align=center;horizontal=1;verticalAlign=middle;" parent="1" vertex="1">
          <mxGeometry x="1062.5" y="1693.13" width="150" height="36.25" as="geometry" />
        </mxCell>
        <mxCell id="K5YFkA_Nb-A_5ZJ6huFh-30" value="profile-process-service" style="shape=folder;fontStyle=1;spacingTop=10;tabWidth=40;tabHeight=10;tabPosition=left;html=1;align=center;horizontal=1;verticalAlign=middle;" parent="1" vertex="1">
          <mxGeometry x="1062.5" y="1741.25" width="150" height="36.25" as="geometry" />
        </mxCell>
      </root>
    </mxGraphModel>
  </diagram>
</mxfile>
